# xmcd CD database file
#
# Track frame offsets:
#	150
#	5568
#	24542
#	42309
#	61481
#	76427
#	92504
#	106675
#	120583
#	136168
#	149434
#	164638
#	177459
#	192239
#	205599
#	223357
#	240819
#	255554
#	272446
#	290700
#	307089
#	321397
#
# Disc length: 4492 seconds
#
# Revision: 0
# Processed by: cddbd v1.5.2PL0 Copyright (c) Steve Scherf et al.
# Submitted via: CDex 1.51
#
DISCID=42118a16
DTITLE=Guitar Center - King of the Blues '07
DYEAR=2007
DGENRE=Blues
TTITLE0=Tune Up
TTITLE1=Monkey Paw
TTITLE2=Whitney's Blues
TTITLE3=Austin Skyline Shuffle
TTITLE4=A Minor Affair
TTITLE5=Little Girl Shuffle
TTITLE6=Funky Woman
TTITLE7=Georgia Rocker
TTITLE8=Slow Down Blues
TTITLE9=Highway Sign
TTITLE10=Devil's corner
TTITLE11=Texas Blues
TTITLE12=East Coast Blues
TTITLE13=Groovin' Blues
TTITLE14=Laid Down Blues
TTITLE15=Modern Blues
TTITLE16=Stone Blues
TTITLE17=50's Rock 'N Roll
TTITLE18=Jazz Swing Blues
TTITLE19=Second Line Blues
TTITLE20=Classic Stop-Time Blues
TTITLE21=Chicago Blues
EXTD=YEAR: 2007
EXTT0=
EXTT1=
EXTT2=
EXTT3=
EXTT4=
EXTT5=
EXTT6=
EXTT7=
EXTT8=
EXTT9=
EXTT10=
EXTT11=
EXTT12=
EXTT13=
EXTT14=
EXTT15=
EXTT16=
EXTT17=
EXTT18=
EXTT19=
EXTT20=
EXTT21=
PLAYORDER=
